<mxfile host="Electron" agent="Mozilla/5.0 (Windows NT 10.0; Win64; x64) AppleWebKit/537.36 (KHTML, like Gecko) draw.io/27.0.5 Chrome/134.0.6998.205 Electron/35.3.0 Safari/537.36" version="27.0.5">
  <diagram name="Page-1" id="c7488fd3-1785-93aa-aadb-54a6760d102a">
    <mxGraphModel dx="1426" dy="889" grid="1" gridSize="10" guides="1" tooltips="1" connect="1" arrows="1" fold="1" page="1" pageScale="1" pageWidth="1100" pageHeight="850" background="none" math="0" shadow="0">
      <root>
        <mxCell id="0" />
        <mxCell id="1" parent="0" />
        <mxCell id="2b4e8129b02d487f-1" value="Fluxograma Incidente" style="swimlane;html=1;childLayout=stackLayout;horizontal=1;startSize=20;horizontalStack=0;rounded=0;shadow=0;labelBackgroundColor=none;strokeWidth=1;fontFamily=Verdana;fontSize=8;align=center;" parent="1" vertex="1">
          <mxGeometry x="180" y="70" width="1250" height="470" as="geometry">
            <mxRectangle x="180" y="70" width="60" height="20" as="alternateBounds" />
          </mxGeometry>
        </mxCell>
        <mxCell id="2b4e8129b02d487f-24" style="edgeStyle=orthogonalEdgeStyle;rounded=0;html=1;labelBackgroundColor=none;startArrow=none;startFill=0;startSize=5;endArrow=classicThin;endFill=1;endSize=5;jettySize=auto;orthogonalLoop=1;strokeWidth=1;fontFamily=Verdana;fontSize=8;entryX=0.5;entryY=0;entryDx=0;entryDy=0;" parent="2b4e8129b02d487f-1" source="2b4e8129b02d487f-6" target="wLUNOJG521dtGGM9zAhy-138" edge="1">
          <mxGeometry relative="1" as="geometry">
            <mxPoint x="155" y="257.7499999999999" as="targetPoint" />
          </mxGeometry>
        </mxCell>
        <mxCell id="2b4e8129b02d487f-2" value="Cliente" style="swimlane;html=1;startSize=20;horizontal=0;" parent="2b4e8129b02d487f-1" vertex="1">
          <mxGeometry y="20" width="1250" height="150" as="geometry" />
        </mxCell>
        <mxCell id="2b4e8129b02d487f-18" style="edgeStyle=orthogonalEdgeStyle;rounded=0;html=1;labelBackgroundColor=none;startArrow=none;startFill=0;startSize=5;endArrow=classicThin;endFill=1;endSize=5;jettySize=auto;orthogonalLoop=1;strokeWidth=1;fontFamily=Verdana;fontSize=8" parent="2b4e8129b02d487f-2" source="2b4e8129b02d487f-5" target="2b4e8129b02d487f-6" edge="1">
          <mxGeometry relative="1" as="geometry" />
        </mxCell>
        <mxCell id="2b4e8129b02d487f-5" value="" style="ellipse;whiteSpace=wrap;html=1;rounded=0;shadow=0;labelBackgroundColor=none;strokeWidth=1;fontFamily=Verdana;fontSize=8;align=center;fillColor=#d5e8d4;strokeColor=#82b366;" parent="2b4e8129b02d487f-2" vertex="1">
          <mxGeometry x="30" y="53.5" width="30" height="30" as="geometry" />
        </mxCell>
        <mxCell id="2b4e8129b02d487f-6" value="Solicita serviço de incidente" style="rounded=1;whiteSpace=wrap;html=1;shadow=0;labelBackgroundColor=none;strokeWidth=1;fontFamily=Verdana;fontSize=8;align=center;" parent="2b4e8129b02d487f-2" vertex="1">
          <mxGeometry x="80" y="49.99999999999997" width="70" height="37" as="geometry" />
        </mxCell>
        <mxCell id="wLUNOJG521dtGGM9zAhy-42" style="edgeStyle=orthogonalEdgeStyle;rounded=0;orthogonalLoop=1;jettySize=auto;html=1;entryX=0;entryY=0.5;entryDx=0;entryDy=0;" edge="1" parent="2b4e8129b02d487f-2" source="wLUNOJG521dtGGM9zAhy-29" target="wLUNOJG521dtGGM9zAhy-40">
          <mxGeometry relative="1" as="geometry" />
        </mxCell>
        <mxCell id="wLUNOJG521dtGGM9zAhy-29" value="Contatar usuário" style="rounded=1;whiteSpace=wrap;html=1;shadow=0;labelBackgroundColor=none;strokeWidth=1;fontFamily=Verdana;fontSize=8;align=center;" vertex="1" parent="2b4e8129b02d487f-2">
          <mxGeometry x="960" y="59.99999999999994" width="70" height="37" as="geometry" />
        </mxCell>
        <mxCell id="wLUNOJG521dtGGM9zAhy-40" value="" style="ellipse;whiteSpace=wrap;html=1;rounded=0;shadow=0;labelBackgroundColor=none;strokeWidth=1;fontFamily=Verdana;fontSize=8;align=center;fillColor=#f8cecc;strokeColor=#b85450;" vertex="1" parent="2b4e8129b02d487f-2">
          <mxGeometry x="1080" y="63.5" width="30" height="30" as="geometry" />
        </mxCell>
        <mxCell id="2b4e8129b02d487f-3" value="N1" style="swimlane;html=1;startSize=20;horizontal=0;" parent="2b4e8129b02d487f-1" vertex="1">
          <mxGeometry y="170" width="1250" height="150" as="geometry" />
        </mxCell>
        <mxCell id="wLUNOJG521dtGGM9zAhy-98" style="edgeStyle=orthogonalEdgeStyle;rounded=0;orthogonalLoop=1;jettySize=auto;html=1;entryX=0;entryY=0.5;entryDx=0;entryDy=0;" edge="1" parent="2b4e8129b02d487f-3" source="wLUNOJG521dtGGM9zAhy-36" target="wLUNOJG521dtGGM9zAhy-97">
          <mxGeometry relative="1" as="geometry" />
        </mxCell>
        <mxCell id="wLUNOJG521dtGGM9zAhy-100" value="Não" style="edgeLabel;html=1;align=center;verticalAlign=middle;resizable=0;points=[];" vertex="1" connectable="0" parent="wLUNOJG521dtGGM9zAhy-98">
          <mxGeometry x="-0.4544" y="-2" relative="1" as="geometry">
            <mxPoint as="offset" />
          </mxGeometry>
        </mxCell>
        <mxCell id="wLUNOJG521dtGGM9zAhy-36" value="&lt;font style=&quot;font-size: 8px;&quot;&gt;Resolveu?&lt;/font&gt;" style="rhombus;whiteSpace=wrap;html=1;" vertex="1" parent="2b4e8129b02d487f-3">
          <mxGeometry x="355" y="80" width="60" height="57.5" as="geometry" />
        </mxCell>
        <mxCell id="wLUNOJG521dtGGM9zAhy-28" value="Registrar serviço" style="rounded=1;whiteSpace=wrap;html=1;shadow=0;labelBackgroundColor=none;strokeWidth=1;fontFamily=Verdana;fontSize=8;align=center;" vertex="1" parent="2b4e8129b02d487f-3">
          <mxGeometry x="350" y="9.999999999999943" width="70" height="37" as="geometry" />
        </mxCell>
        <mxCell id="wLUNOJG521dtGGM9zAhy-39" style="edgeStyle=orthogonalEdgeStyle;rounded=0;orthogonalLoop=1;jettySize=auto;html=1;" edge="1" parent="2b4e8129b02d487f-3" source="wLUNOJG521dtGGM9zAhy-36" target="wLUNOJG521dtGGM9zAhy-28">
          <mxGeometry relative="1" as="geometry">
            <mxPoint x="255" y="30" as="targetPoint" />
          </mxGeometry>
        </mxCell>
        <mxCell id="wLUNOJG521dtGGM9zAhy-47" value="Sim" style="edgeLabel;html=1;align=center;verticalAlign=middle;resizable=0;points=[];" vertex="1" connectable="0" parent="wLUNOJG521dtGGM9zAhy-39">
          <mxGeometry x="-0.3959" relative="1" as="geometry">
            <mxPoint as="offset" />
          </mxGeometry>
        </mxCell>
        <mxCell id="wLUNOJG521dtGGM9zAhy-96" style="edgeStyle=orthogonalEdgeStyle;rounded=0;orthogonalLoop=1;jettySize=auto;html=1;entryX=0;entryY=0.5;entryDx=0;entryDy=0;" edge="1" parent="2b4e8129b02d487f-3" source="wLUNOJG521dtGGM9zAhy-94" target="wLUNOJG521dtGGM9zAhy-36">
          <mxGeometry relative="1" as="geometry" />
        </mxCell>
        <mxCell id="wLUNOJG521dtGGM9zAhy-94" value="&lt;font style=&quot;font-size: 8px;&quot;&gt;Consultar base de dados&lt;/font&gt;" style="shape=cylinder3;whiteSpace=wrap;html=1;boundedLbl=1;backgroundOutline=1;size=15;" vertex="1" parent="2b4e8129b02d487f-3">
          <mxGeometry x="220" y="10" width="50" height="69.75" as="geometry" />
        </mxCell>
        <mxCell id="wLUNOJG521dtGGM9zAhy-97" value="Enviar para o N2" style="rounded=1;whiteSpace=wrap;html=1;shadow=0;labelBackgroundColor=none;strokeWidth=1;fontFamily=Verdana;fontSize=8;align=center;" vertex="1" parent="2b4e8129b02d487f-3">
          <mxGeometry x="470" y="90.24999999999994" width="70" height="37" as="geometry" />
        </mxCell>
        <mxCell id="wLUNOJG521dtGGM9zAhy-138" value="Atende e registra o incidente" style="rounded=1;whiteSpace=wrap;html=1;shadow=0;labelBackgroundColor=none;strokeWidth=1;fontFamily=Verdana;fontSize=8;align=center;" vertex="1" parent="2b4e8129b02d487f-3">
          <mxGeometry x="72.5" y="25" width="85" height="39.75" as="geometry" />
        </mxCell>
        <mxCell id="wLUNOJG521dtGGM9zAhy-148" style="edgeStyle=orthogonalEdgeStyle;rounded=0;orthogonalLoop=1;jettySize=auto;html=1;entryX=0;entryY=0.5;entryDx=0;entryDy=0;" edge="1" parent="2b4e8129b02d487f-3" source="wLUNOJG521dtGGM9zAhy-139" target="wLUNOJG521dtGGM9zAhy-147">
          <mxGeometry relative="1" as="geometry" />
        </mxCell>
        <mxCell id="wLUNOJG521dtGGM9zAhy-139" value="Classificação do incidente" style="rounded=1;whiteSpace=wrap;html=1;shadow=0;labelBackgroundColor=none;strokeWidth=1;fontFamily=Verdana;fontSize=8;align=center;" vertex="1" parent="2b4e8129b02d487f-3">
          <mxGeometry x="72.5" y="97.75" width="85" height="39.75" as="geometry" />
        </mxCell>
        <mxCell id="wLUNOJG521dtGGM9zAhy-137" style="edgeStyle=orthogonalEdgeStyle;rounded=0;orthogonalLoop=1;jettySize=auto;html=1;entryX=0.5;entryY=0;entryDx=0;entryDy=0;" edge="1" parent="2b4e8129b02d487f-3" source="wLUNOJG521dtGGM9zAhy-138" target="wLUNOJG521dtGGM9zAhy-139">
          <mxGeometry relative="1" as="geometry" />
        </mxCell>
        <mxCell id="wLUNOJG521dtGGM9zAhy-149" style="edgeStyle=orthogonalEdgeStyle;rounded=0;orthogonalLoop=1;jettySize=auto;html=1;" edge="1" parent="2b4e8129b02d487f-3" source="wLUNOJG521dtGGM9zAhy-147" target="wLUNOJG521dtGGM9zAhy-94">
          <mxGeometry relative="1" as="geometry" />
        </mxCell>
        <mxCell id="wLUNOJG521dtGGM9zAhy-147" value="Priorização do incidente" style="rounded=1;whiteSpace=wrap;html=1;shadow=0;labelBackgroundColor=none;strokeWidth=1;fontFamily=Verdana;fontSize=8;align=center;" vertex="1" parent="2b4e8129b02d487f-3">
          <mxGeometry x="202.5" y="97.75" width="85" height="39.75" as="geometry" />
        </mxCell>
        <mxCell id="wLUNOJG521dtGGM9zAhy-109" style="edgeStyle=orthogonalEdgeStyle;rounded=0;orthogonalLoop=1;jettySize=auto;html=1;" edge="1" parent="2b4e8129b02d487f-1" source="wLUNOJG521dtGGM9zAhy-97" target="wLUNOJG521dtGGM9zAhy-101">
          <mxGeometry relative="1" as="geometry" />
        </mxCell>
        <mxCell id="wLUNOJG521dtGGM9zAhy-112" style="edgeStyle=orthogonalEdgeStyle;rounded=0;orthogonalLoop=1;jettySize=auto;html=1;entryX=1;entryY=0.5;entryDx=0;entryDy=0;" edge="1" parent="2b4e8129b02d487f-1" source="wLUNOJG521dtGGM9zAhy-102" target="wLUNOJG521dtGGM9zAhy-28">
          <mxGeometry relative="1" as="geometry">
            <Array as="points">
              <mxPoint x="720" y="199" />
            </Array>
          </mxGeometry>
        </mxCell>
        <mxCell id="wLUNOJG521dtGGM9zAhy-136" value="Sim" style="edgeLabel;html=1;align=center;verticalAlign=middle;resizable=0;points=[];" vertex="1" connectable="0" parent="wLUNOJG521dtGGM9zAhy-112">
          <mxGeometry x="-0.9042" y="1" relative="1" as="geometry">
            <mxPoint as="offset" />
          </mxGeometry>
        </mxCell>
        <mxCell id="wLUNOJG521dtGGM9zAhy-113" style="edgeStyle=orthogonalEdgeStyle;rounded=0;orthogonalLoop=1;jettySize=auto;html=1;entryX=0;entryY=0.5;entryDx=0;entryDy=0;" edge="1" parent="2b4e8129b02d487f-1" source="wLUNOJG521dtGGM9zAhy-28" target="wLUNOJG521dtGGM9zAhy-29">
          <mxGeometry relative="1" as="geometry">
            <Array as="points">
              <mxPoint x="385" y="99" />
              <mxPoint x="635" y="99" />
            </Array>
          </mxGeometry>
        </mxCell>
        <mxCell id="2b4e8129b02d487f-4" value="N2" style="swimlane;html=1;startSize=20;horizontal=0;" parent="2b4e8129b02d487f-1" vertex="1">
          <mxGeometry y="320" width="1250" height="150" as="geometry" />
        </mxCell>
        <mxCell id="wLUNOJG521dtGGM9zAhy-122" style="edgeStyle=orthogonalEdgeStyle;rounded=0;orthogonalLoop=1;jettySize=auto;html=1;" edge="1" parent="2b4e8129b02d487f-4" source="wLUNOJG521dtGGM9zAhy-101" target="wLUNOJG521dtGGM9zAhy-121">
          <mxGeometry relative="1" as="geometry" />
        </mxCell>
        <mxCell id="wLUNOJG521dtGGM9zAhy-150" style="edgeStyle=orthogonalEdgeStyle;rounded=0;orthogonalLoop=1;jettySize=auto;html=1;" edge="1" parent="2b4e8129b02d487f-4" source="wLUNOJG521dtGGM9zAhy-101" target="wLUNOJG521dtGGM9zAhy-141">
          <mxGeometry relative="1" as="geometry" />
        </mxCell>
        <mxCell id="wLUNOJG521dtGGM9zAhy-101" value="Recebe o Incidente" style="rounded=1;whiteSpace=wrap;html=1;shadow=0;labelBackgroundColor=none;strokeWidth=1;fontFamily=Verdana;fontSize=8;align=center;" vertex="1" parent="2b4e8129b02d487f-4">
          <mxGeometry x="470" y="21.36999999999994" width="70" height="37" as="geometry" />
        </mxCell>
        <mxCell id="wLUNOJG521dtGGM9zAhy-110" style="edgeStyle=orthogonalEdgeStyle;rounded=0;orthogonalLoop=1;jettySize=auto;html=1;" edge="1" parent="2b4e8129b02d487f-4" source="wLUNOJG521dtGGM9zAhy-102" target="wLUNOJG521dtGGM9zAhy-104">
          <mxGeometry relative="1" as="geometry" />
        </mxCell>
        <mxCell id="wLUNOJG521dtGGM9zAhy-124" value="Não" style="edgeLabel;html=1;align=center;verticalAlign=middle;resizable=0;points=[];" vertex="1" connectable="0" parent="wLUNOJG521dtGGM9zAhy-110">
          <mxGeometry x="-0.1781" y="-2" relative="1" as="geometry">
            <mxPoint as="offset" />
          </mxGeometry>
        </mxCell>
        <mxCell id="wLUNOJG521dtGGM9zAhy-102" value="&lt;font style=&quot;font-size: 8px;&quot;&gt;Resolveu?&lt;/font&gt;" style="rhombus;whiteSpace=wrap;html=1;" vertex="1" parent="2b4e8129b02d487f-4">
          <mxGeometry x="700" y="39.75" width="60" height="57.5" as="geometry" />
        </mxCell>
        <mxCell id="wLUNOJG521dtGGM9zAhy-104" value="Enviar para o N3" style="rounded=1;whiteSpace=wrap;html=1;shadow=0;labelBackgroundColor=none;strokeWidth=1;fontFamily=Verdana;fontSize=8;align=center;" vertex="1" parent="2b4e8129b02d487f-4">
          <mxGeometry x="800" y="49.99999999999994" width="70" height="37" as="geometry" />
        </mxCell>
        <mxCell id="wLUNOJG521dtGGM9zAhy-123" style="edgeStyle=orthogonalEdgeStyle;rounded=0;orthogonalLoop=1;jettySize=auto;html=1;entryX=0;entryY=0.5;entryDx=0;entryDy=0;" edge="1" parent="2b4e8129b02d487f-4" source="wLUNOJG521dtGGM9zAhy-121" target="wLUNOJG521dtGGM9zAhy-102">
          <mxGeometry relative="1" as="geometry" />
        </mxCell>
        <mxCell id="wLUNOJG521dtGGM9zAhy-121" value="Tenta resolver" style="rounded=1;whiteSpace=wrap;html=1;shadow=0;labelBackgroundColor=none;strokeWidth=1;fontFamily=Verdana;fontSize=8;align=center;" vertex="1" parent="2b4e8129b02d487f-4">
          <mxGeometry x="590" y="21.36999999999994" width="70" height="37" as="geometry" />
        </mxCell>
        <mxCell id="wLUNOJG521dtGGM9zAhy-141" value="Atende e registra o incidente" style="rounded=1;whiteSpace=wrap;html=1;shadow=0;labelBackgroundColor=none;strokeWidth=1;fontFamily=Verdana;fontSize=8;align=center;" vertex="1" parent="2b4e8129b02d487f-4">
          <mxGeometry x="70" y="20" width="85" height="39.75" as="geometry" />
        </mxCell>
        <mxCell id="wLUNOJG521dtGGM9zAhy-152" style="edgeStyle=orthogonalEdgeStyle;rounded=0;orthogonalLoop=1;jettySize=auto;html=1;" edge="1" parent="2b4e8129b02d487f-4" source="wLUNOJG521dtGGM9zAhy-142" target="wLUNOJG521dtGGM9zAhy-151">
          <mxGeometry relative="1" as="geometry" />
        </mxCell>
        <mxCell id="wLUNOJG521dtGGM9zAhy-142" value="Classificação do incidente" style="rounded=1;whiteSpace=wrap;html=1;shadow=0;labelBackgroundColor=none;strokeWidth=1;fontFamily=Verdana;fontSize=8;align=center;" vertex="1" parent="2b4e8129b02d487f-4">
          <mxGeometry x="70" y="80" width="85" height="39.75" as="geometry" />
        </mxCell>
        <mxCell id="wLUNOJG521dtGGM9zAhy-140" style="edgeStyle=orthogonalEdgeStyle;rounded=0;orthogonalLoop=1;jettySize=auto;html=1;" edge="1" parent="2b4e8129b02d487f-4" source="wLUNOJG521dtGGM9zAhy-141" target="wLUNOJG521dtGGM9zAhy-142">
          <mxGeometry relative="1" as="geometry" />
        </mxCell>
        <mxCell id="wLUNOJG521dtGGM9zAhy-153" style="edgeStyle=orthogonalEdgeStyle;rounded=0;orthogonalLoop=1;jettySize=auto;html=1;entryX=0.5;entryY=1;entryDx=0;entryDy=0;" edge="1" parent="2b4e8129b02d487f-4" source="wLUNOJG521dtGGM9zAhy-151" target="wLUNOJG521dtGGM9zAhy-121">
          <mxGeometry relative="1" as="geometry">
            <Array as="points">
              <mxPoint x="625" y="100" />
            </Array>
          </mxGeometry>
        </mxCell>
        <mxCell id="wLUNOJG521dtGGM9zAhy-151" value="Priorização do incidente" style="rounded=1;whiteSpace=wrap;html=1;shadow=0;labelBackgroundColor=none;strokeWidth=1;fontFamily=Verdana;fontSize=8;align=center;" vertex="1" parent="2b4e8129b02d487f-4">
          <mxGeometry x="462.5" y="80" width="85" height="39.75" as="geometry" />
        </mxCell>
        <mxCell id="wLUNOJG521dtGGM9zAhy-1" value="N3" style="swimlane;html=1;startSize=20;horizontal=0;" vertex="1" parent="1">
          <mxGeometry x="180" y="540" width="1250" height="150" as="geometry" />
        </mxCell>
        <mxCell id="wLUNOJG521dtGGM9zAhy-127" style="edgeStyle=orthogonalEdgeStyle;rounded=0;orthogonalLoop=1;jettySize=auto;html=1;" edge="1" parent="wLUNOJG521dtGGM9zAhy-1" source="wLUNOJG521dtGGM9zAhy-106" target="wLUNOJG521dtGGM9zAhy-126">
          <mxGeometry relative="1" as="geometry" />
        </mxCell>
        <mxCell id="wLUNOJG521dtGGM9zAhy-154" style="edgeStyle=orthogonalEdgeStyle;rounded=0;orthogonalLoop=1;jettySize=auto;html=1;" edge="1" parent="wLUNOJG521dtGGM9zAhy-1" source="wLUNOJG521dtGGM9zAhy-106" target="wLUNOJG521dtGGM9zAhy-144">
          <mxGeometry relative="1" as="geometry" />
        </mxCell>
        <mxCell id="wLUNOJG521dtGGM9zAhy-106" value="Recebe o incidente" style="rounded=1;whiteSpace=wrap;html=1;shadow=0;labelBackgroundColor=none;strokeWidth=1;fontFamily=Verdana;fontSize=8;align=center;" vertex="1" parent="wLUNOJG521dtGGM9zAhy-1">
          <mxGeometry x="800" y="23.25" width="70" height="37" as="geometry" />
        </mxCell>
        <mxCell id="wLUNOJG521dtGGM9zAhy-129" style="edgeStyle=orthogonalEdgeStyle;rounded=0;orthogonalLoop=1;jettySize=auto;html=1;entryX=0.5;entryY=1;entryDx=0;entryDy=0;" edge="1" parent="wLUNOJG521dtGGM9zAhy-1" source="wLUNOJG521dtGGM9zAhy-107" target="wLUNOJG521dtGGM9zAhy-126">
          <mxGeometry relative="1" as="geometry">
            <Array as="points">
              <mxPoint x="1070" y="127" />
              <mxPoint x="965" y="127" />
            </Array>
          </mxGeometry>
        </mxCell>
        <mxCell id="wLUNOJG521dtGGM9zAhy-133" value="Não" style="edgeLabel;html=1;align=center;verticalAlign=middle;resizable=0;points=[];" vertex="1" connectable="0" parent="wLUNOJG521dtGGM9zAhy-129">
          <mxGeometry x="0.0835" y="1" relative="1" as="geometry">
            <mxPoint as="offset" />
          </mxGeometry>
        </mxCell>
        <mxCell id="wLUNOJG521dtGGM9zAhy-107" value="&lt;font style=&quot;font-size: 8px;&quot;&gt;Resolveu?&lt;/font&gt;" style="rhombus;whiteSpace=wrap;html=1;" vertex="1" parent="wLUNOJG521dtGGM9zAhy-1">
          <mxGeometry x="1040" y="40" width="60" height="57.5" as="geometry" />
        </mxCell>
        <mxCell id="wLUNOJG521dtGGM9zAhy-128" style="edgeStyle=orthogonalEdgeStyle;rounded=0;orthogonalLoop=1;jettySize=auto;html=1;" edge="1" parent="wLUNOJG521dtGGM9zAhy-1" source="wLUNOJG521dtGGM9zAhy-126" target="wLUNOJG521dtGGM9zAhy-107">
          <mxGeometry relative="1" as="geometry" />
        </mxCell>
        <mxCell id="wLUNOJG521dtGGM9zAhy-126" value="Tenta resolver" style="rounded=1;whiteSpace=wrap;html=1;shadow=0;labelBackgroundColor=none;strokeWidth=1;fontFamily=Verdana;fontSize=8;align=center;" vertex="1" parent="wLUNOJG521dtGGM9zAhy-1">
          <mxGeometry x="930" y="23.25" width="70" height="37" as="geometry" />
        </mxCell>
        <mxCell id="wLUNOJG521dtGGM9zAhy-144" value="Atende e registra o incidente" style="rounded=1;whiteSpace=wrap;html=1;shadow=0;labelBackgroundColor=none;strokeWidth=1;fontFamily=Verdana;fontSize=8;align=center;" vertex="1" parent="wLUNOJG521dtGGM9zAhy-1">
          <mxGeometry x="70" y="21.88" width="85" height="39.75" as="geometry" />
        </mxCell>
        <mxCell id="wLUNOJG521dtGGM9zAhy-201" style="edgeStyle=orthogonalEdgeStyle;rounded=0;orthogonalLoop=1;jettySize=auto;html=1;entryX=0;entryY=0.5;entryDx=0;entryDy=0;" edge="1" parent="wLUNOJG521dtGGM9zAhy-1" source="wLUNOJG521dtGGM9zAhy-145" target="wLUNOJG521dtGGM9zAhy-200">
          <mxGeometry relative="1" as="geometry" />
        </mxCell>
        <mxCell id="wLUNOJG521dtGGM9zAhy-145" value="Classificação do incidente" style="rounded=1;whiteSpace=wrap;html=1;shadow=0;labelBackgroundColor=none;strokeWidth=1;fontFamily=Verdana;fontSize=8;align=center;" vertex="1" parent="wLUNOJG521dtGGM9zAhy-1">
          <mxGeometry x="70" y="90" width="85" height="39.75" as="geometry" />
        </mxCell>
        <mxCell id="wLUNOJG521dtGGM9zAhy-143" style="edgeStyle=orthogonalEdgeStyle;rounded=0;orthogonalLoop=1;jettySize=auto;html=1;entryX=0.5;entryY=0;entryDx=0;entryDy=0;" edge="1" parent="wLUNOJG521dtGGM9zAhy-1" source="wLUNOJG521dtGGM9zAhy-144" target="wLUNOJG521dtGGM9zAhy-145">
          <mxGeometry relative="1" as="geometry" />
        </mxCell>
        <mxCell id="wLUNOJG521dtGGM9zAhy-202" style="edgeStyle=orthogonalEdgeStyle;rounded=0;orthogonalLoop=1;jettySize=auto;html=1;entryX=0.5;entryY=1;entryDx=0;entryDy=0;" edge="1" parent="wLUNOJG521dtGGM9zAhy-1" source="wLUNOJG521dtGGM9zAhy-200" target="wLUNOJG521dtGGM9zAhy-106">
          <mxGeometry relative="1" as="geometry" />
        </mxCell>
        <mxCell id="wLUNOJG521dtGGM9zAhy-200" value="Priorização do incidente" style="rounded=1;whiteSpace=wrap;html=1;shadow=0;labelBackgroundColor=none;strokeWidth=1;fontFamily=Verdana;fontSize=8;align=center;" vertex="1" parent="wLUNOJG521dtGGM9zAhy-1">
          <mxGeometry x="590" y="90" width="85" height="39.75" as="geometry" />
        </mxCell>
        <mxCell id="wLUNOJG521dtGGM9zAhy-125" style="edgeStyle=orthogonalEdgeStyle;rounded=0;orthogonalLoop=1;jettySize=auto;html=1;" edge="1" parent="1" source="wLUNOJG521dtGGM9zAhy-104" target="wLUNOJG521dtGGM9zAhy-106">
          <mxGeometry relative="1" as="geometry" />
        </mxCell>
        <mxCell id="wLUNOJG521dtGGM9zAhy-130" style="edgeStyle=orthogonalEdgeStyle;rounded=0;orthogonalLoop=1;jettySize=auto;html=1;entryX=1;entryY=0.5;entryDx=0;entryDy=0;" edge="1" parent="1" source="wLUNOJG521dtGGM9zAhy-107" target="wLUNOJG521dtGGM9zAhy-28">
          <mxGeometry relative="1" as="geometry">
            <Array as="points">
              <mxPoint x="1250" y="269" />
            </Array>
          </mxGeometry>
        </mxCell>
        <mxCell id="wLUNOJG521dtGGM9zAhy-135" value="Sim" style="edgeLabel;html=1;align=center;verticalAlign=middle;resizable=0;points=[];" vertex="1" connectable="0" parent="wLUNOJG521dtGGM9zAhy-130">
          <mxGeometry x="-0.9625" relative="1" as="geometry">
            <mxPoint as="offset" />
          </mxGeometry>
        </mxCell>
      </root>
    </mxGraphModel>
  </diagram>
</mxfile>
